<?xml version="1.0" standalone="no"?>
<!DOCTYPE svg PUBLIC "-//W3C//DTD SVG 20010904//EN"
 "http://www.w3.org/TR/2001/REC-SVG-20010904/DTD/svg10.dtd">
<svg version="1.0" xmlns="http://www.w3.org/2000/svg"
 width="1024.000000pt" height="1024.000000pt" viewBox="0 0 1024.000000 1024.000000"
 preserveAspectRatio="xMidYMid meet">

<g transform="translate(0.000000,1024.000000) scale(0.100000,-0.100000)"
fill="#000000" stroke="none">
<path d="M4890 9953 c-320 -15 -790 -93 -1107 -183 -976 -276 -1810 -832
-2449 -1631 -493 -616 -805 -1291 -963 -2084 -91 -452 -114 -1019 -61 -1480
104 -903 478 -1790 1055 -2505 559 -692 1394 -1269 2225 -1538 1073 -347 2131
-334 3158 40 905 329 1672 890 2235 1635 508 673 854 1539 951 2378 52 441 43
836 -29 1302 -123 796 -463 1581 -967 2227 -100 129 -329 386 -424 477 -352
336 -762 628 -1164 829 -387 193 -698 307 -1120 410 -415 100 -896 144 -1340
123z m656 -88 c1238 -118 2355 -680 3160 -1591 133 -150 254 -309 379 -499
151 -229 211 -334 315 -548 242 -500 396 -1018 462 -1558 30 -248 33 -802 5
-1029 -140 -1140 -637 -2166 -1418 -2925 -766 -745 -1790 -1221 -2874 -1337
-157 -17 -740 -17 -895 0 -855 94 -1532 337 -2215 795 -1122 752 -1871 1947
-2064 3292 -57 401 -59 880 -5 1285 114 848 441 1631 957 2295 676 867 1601
1459 2672 1709 218 50 505 96 725 115 169 15 624 12 796 -4z"/>
<path d="M4507 8670 c-102 -27 -127 -40 -127 -62 0 -19 5 -20 50 -16 57 6 49
24 76 -169 10 -68 15 -126 11 -129 -4 -4 -27 -1 -52 6 -94 26 -226 -10 -290
-81 -86 -95 -118 -229 -92 -379 18 -106 49 -173 104 -227 55 -53 97 -67 187
-61 86 6 149 32 209 87 l45 42 9 -38 c6 -25 15 -39 28 -42 32 -6 186 31 192
46 10 25 -17 44 -53 37 -47 -9 -61 20 -79 160 -9 64 -36 254 -60 422 -25 168
-45 325 -45 349 0 82 -4 84 -113 55z m-16 -456 c14 -7 30 -19 36 -26 6 -7 21
-85 33 -173 12 -88 26 -180 31 -203 8 -37 6 -49 -11 -77 -93 -150 -276 -132
-342 33 -30 76 -33 281 -5 353 20 52 58 92 102 107 36 12 120 4 156 -14z"/>
<path d="M5846 8584 c-8 -20 -11 -16 42 -43 33 -17 42 -26 37 -39 -7 -20 -133
-529 -174 -708 -16 -69 -35 -132 -41 -140 -8 -8 -31 -14 -60 -14 -35 0 -50 -4
-54 -17 -4 -9 -3 -19 1 -23 10 -8 303 -80 327 -80 12 0 16 7 14 23 -2 16 -15
26 -45 37 -24 8 -43 19 -43 24 0 5 23 101 52 214 l51 204 36 -7 c76 -14 426
-98 433 -104 7 -6 -84 -391 -97 -412 -4 -5 -29 -9 -57 -8 -34 2 -52 -2 -59
-12 -19 -30 -26 -26 196 -83 91 -24 134 -31 143 -24 22 19 12 34 -38 58 -36
17 -49 28 -45 39 6 21 79 317 150 608 31 128 62 236 68 240 6 3 32 5 57 4 31
-1 51 3 59 13 17 20 11 22 -153 68 -172 48 -180 49 -184 21 -2 -17 4 -24 33
-33 20 -7 38 -17 41 -24 5 -14 -84 -367 -96 -379 -7 -8 -134 16 -335 63 -125
29 -125 29 -125 50 0 29 81 364 91 374 5 5 30 9 57 7 34 -1 53 3 62 13 15 19
-5 28 -128 55 -48 11 -107 27 -131 35 -56 20 -77 20 -85 0z"/>
<path d="M4897 8323 c-4 -3 -7 -14 -7 -24 0 -13 12 -20 43 -26 51 -10 58 -23
110 -203 20 -69 59 -201 87 -295 l50 -170 -50 -102 c-28 -57 -60 -107 -71
-113 -15 -9 -30 -6 -69 16 -46 25 -51 26 -73 11 -30 -19 -47 -64 -36 -94 19
-51 116 -69 175 -32 45 27 82 83 155 231 34 67 73 140 88 163 15 22 33 54 39
70 7 17 59 130 114 252 l102 222 49 3 c34 2 53 9 61 20 20 32 -5 39 -150 41
-133 2 -139 1 -139 -18 0 -12 8 -21 20 -23 56 -8 65 -13 65 -35 0 -24 -149
-373 -177 -416 l-17 -26 -16 82 c-10 45 -24 101 -33 125 -25 66 -77 241 -77
261 0 14 9 17 44 17 45 0 78 22 60 40 -5 5 -77 14 -159 19 -180 13 -180 13
-188 4z"/>
<path d="M3715 8177 c-11 -8 -40 -21 -65 -31 -66 -26 -90 -44 -83 -62 4 -12
17 -15 57 -12 l51 3 67 -200 c36 -110 67 -216 67 -235 1 -54 -54 -136 -112
-167 -64 -33 -114 -13 -143 57 -37 88 -154 476 -154 511 0 29 -35 24 -136 -20
-76 -33 -89 -42 -89 -62 0 -26 13 -29 72 -15 l32 7 41 -133 c122 -393 126
-402 175 -434 17 -11 48 -17 83 -18 104 -1 198 62 248 167 10 20 20 37 24 37
3 0 14 -22 24 -50 10 -27 22 -50 27 -50 4 0 48 13 96 30 76 25 88 32 88 52 0
21 -4 23 -52 23 -28 0 -53 2 -56 5 -3 3 -46 137 -96 299 -50 161 -94 298 -97
302 -8 13 -47 11 -69 -4z"/>
<path d="M2767 7983 c-4 -3 -7 -39 -7 -79 0 -82 -10 -118 -46 -155 -21 -22
-22 -28 -11 -43 12 -17 17 -17 50 -5 20 7 38 11 39 8 2 -2 40 -78 85 -169 95
-189 170 -311 207 -335 38 -25 99 -21 152 10 54 32 104 97 97 125 -7 27 -22
25 -58 -9 -43 -41 -66 -45 -106 -19 -28 19 -52 59 -131 218 -53 107 -100 207
-103 221 -6 24 -1 29 58 63 66 36 83 57 69 81 -6 11 -23 7 -86 -21 -44 -19
-82 -34 -85 -34 -4 0 -23 34 -44 75 -26 53 -42 75 -55 75 -10 0 -22 -3 -25 -7z"/>
<path d="M6842 7968 c-19 -19 -14 -32 23 -56 19 -12 35 -29 35 -37 0 -9 -27
-69 -60 -135 -161 -322 -182 -401 -126 -475 35 -46 134 -95 191 -95 22 0 67
11 99 25 33 13 62 23 64 21 2 -2 -4 -30 -12 -62 -10 -37 -12 -62 -6 -69 13
-16 176 -59 190 -50 22 14 10 45 -25 62 -19 9 -35 24 -35 33 0 33 51 160 149
375 56 120 100 223 98 228 -4 13 -186 69 -203 63 -25 -9 -15 -36 21 -57 19
-12 35 -25 35 -30 0 -5 -21 -55 -46 -111 -25 -57 -64 -143 -86 -193 -22 -49
-45 -96 -51 -103 -19 -24 -87 -53 -137 -59 -97 -11 -145 32 -138 123 4 44 28
100 126 299 l121 244 -102 32 c-56 17 -105 33 -108 35 -3 2 -11 -2 -17 -8z"/>
<path d="M7823 7894 c-3 -9 7 -28 27 -49 l33 -34 -40 -53 c-22 -29 -114 -161
-204 -293 -339 -498 -351 -517 -315 -531 8 -3 28 5 45 17 17 12 32 21 34 18 2
-2 12 -26 22 -54 37 -101 136 -160 267 -159 131 2 302 113 372 243 53 99 71
217 42 285 -39 94 -147 166 -248 166 -32 0 -58 4 -58 8 0 5 54 84 120 177 66
92 120 169 120 170 0 8 -181 105 -195 105 -9 0 -18 -7 -22 -16z m61 -515 c87
-24 132 -120 102 -221 -52 -178 -233 -352 -346 -333 -76 13 -138 73 -146 141
-5 35 1 48 60 134 36 52 88 131 115 176 67 108 115 131 215 103z"/>
<path d="M2200 7817 c-123 -42 -233 -135 -287 -242 -38 -74 -38 -163 0 -228
33 -55 92 -102 151 -118 31 -9 63 -9 131 0 310 41 355 38 425 -25 69 -62 85
-146 44 -226 -25 -48 -159 -127 -216 -128 -20 0 -50 20 -108 72 l-81 71 -26
-26 -26 -26 41 -53 c109 -142 122 -147 248 -98 141 57 268 162 299 249 46 132
-11 278 -131 337 -82 40 -224 46 -388 15 -136 -26 -175 -20 -236 36 -73 65
-71 141 6 223 43 46 133 100 167 100 9 0 50 -31 90 -69 71 -68 73 -69 100 -55
15 8 27 21 27 28 0 15 -105 166 -124 178 -17 12 -36 9 -106 -15z"/>
<path d="M3454 6631 c-92 -42 -154 -129 -154 -216 0 -86 44 -147 117 -161 19
-4 37 -12 39 -19 11 -29 -93 -255 -173 -377 -51 -77 -102 -124 -183 -169 -82
-46 -137 -95 -149 -132 -6 -17 -15 -65 -20 -105 -5 -41 -11 -76 -14 -78 -2 -3
-33 -9 -68 -15 -147 -23 -200 -54 -246 -144 -21 -39 -26 -65 -27 -122 -1 -91
11 -106 56 -71 60 46 170 72 374 88 66 6 151 17 190 25 38 8 82 15 99 15 l29
0 -21 -21 c-19 -19 -35 -22 -129 -25 -104 -4 -158 -14 -78 -14 21 -1 53 -7 69
-14 l30 -14 -27 -10 c-15 -6 -72 -14 -128 -18 -55 -4 -103 -10 -105 -14 -9
-15 134 -8 229 11 54 11 102 16 107 12 9 -10 -17 -259 -31 -291 -5 -13 -10
-38 -10 -57 0 -31 4 -35 73 -69 86 -43 105 -44 142 -10 26 24 26 26 9 38 -10
8 -54 16 -99 18 -44 2 -86 7 -91 11 -7 4 -8 23 -3 54 4 26 13 107 19 178 8 97
17 143 35 182 13 28 21 54 19 56 -11 11 87 56 135 63 37 5 57 13 70 30 30 38
101 232 107 293 6 52 3 61 -30 117 -45 75 -53 118 -33 167 30 71 114 55 182
-34 20 -27 40 -49 44 -49 4 0 39 24 78 54 61 46 78 54 117 54 26 1 62 9 82 18
46 22 121 90 172 157 56 73 80 85 126 63 45 -21 61 -66 52 -152 -4 -35 -3 -64
1 -64 19 0 55 34 73 70 74 146 28 266 -129 338 -31 14 -78 47 -105 73 -96 94
-262 151 -437 151 l-108 0 -6 32 c-7 33 -35 71 -75 99 -34 24 -141 23 -196 -2z
m665 -677 c-31 -38 -112 -59 -181 -47 -42 7 -40 8 34 14 51 4 88 13 110 27 40
25 55 27 37 6z m-1109 -376 c-10 -24 -24 -74 -31 -113 -7 -38 -16 -74 -21 -79
-15 -17 -8 113 7 152 13 31 51 82 61 82 2 0 -6 -19 -16 -42z"/>
<path d="M6115 6617 c-77 -20 -160 -66 -231 -129 -64 -57 -74 -63 -104 -58 -8
1 -40 -6 -71 -15 -53 -16 -59 -16 -89 -1 -33 16 -50 14 -50 -7 0 -6 -7 -30
-16 -54 l-16 -42 -43 34 c-56 47 -113 65 -201 65 -40 0 -99 7 -131 15 -90 23
-139 19 -213 -18 -48 -24 -77 -47 -112 -92 -29 -35 -61 -64 -79 -70 -80 -27
-155 -135 -165 -237 -3 -29 -10 -65 -16 -80 -11 -30 -90 -88 -120 -88 -35 0
-8 -19 35 -25 30 -5 55 -2 81 9 49 21 80 7 73 -32 -3 -15 2 -43 10 -64 8 -21
12 -49 9 -62 -9 -37 13 -85 46 -102 l31 -16 -8 84 c-4 45 -9 97 -10 113 -1 17
-5 38 -10 48 -6 14 -2 17 19 17 38 0 119 44 151 82 15 18 41 61 58 95 17 35
34 63 37 63 3 0 13 -21 24 -46 23 -56 104 -146 153 -169 23 -11 75 -21 137
-25 82 -5 102 -10 110 -25 15 -26 44 -55 55 -55 5 0 11 10 15 23 10 40 54 77
91 77 25 0 39 -7 55 -27 55 -70 -24 -252 -116 -269 -49 -9 -67 -54 -67 -160 0
-66 5 -92 27 -140 32 -70 73 -115 127 -139 21 -10 39 -23 39 -28 0 -21 -64
-109 -108 -148 -26 -22 -76 -57 -112 -77 -63 -36 -68 -37 -165 -36 -117 1
-160 13 -217 61 -103 85 -118 176 -35 218 33 16 30 30 -9 44 -23 8 -47 29 -67
57 -17 25 -38 43 -46 42 -8 -2 -35 -41 -59 -87 -46 -86 -76 -111 -134 -111
-37 -1 -159 -47 -183 -70 -23 -22 -111 -192 -136 -262 -11 -34 -10 -49 11
-135 13 -54 33 -163 44 -243 l21 -145 400 0 c220 -1 410 -4 422 -8 53 -19 89
-79 138 -233 26 -82 50 -160 54 -174 6 -18 16 -26 37 -28 57 -6 149 -34 175
-53 15 -10 31 -19 37 -19 5 0 26 -18 47 -41 28 -31 36 -47 32 -66 -4 -23 -2
-25 24 -19 56 11 130 -12 189 -57 64 -51 161 -107 182 -107 10 0 15 10 16 28
3 211 23 912 27 987 9 151 34 439 46 540 10 88 41 224 55 247 4 7 7 32 5 56
-2 41 1 47 63 113 66 69 117 155 131 217 9 44 -1 41 -16 -5 -20 -62 -84 -146
-177 -233 -89 -84 -140 -115 -171 -105 -10 3 -61 -13 -115 -36 -103 -44 -124
-64 -146 -134 -15 -49 -22 -57 -42 -50 -13 5 -17 28 -20 113 -4 100 -6 111
-41 177 -21 39 -58 99 -83 135 -46 64 -46 65 -42 135 3 62 9 81 44 141 39 69
40 72 27 109 -7 21 -20 91 -28 156 -9 64 -20 131 -25 150 -5 18 -8 34 -7 36 2
1 19 -2 38 -7 18 -6 49 -10 68 -10 56 0 191 46 261 90 68 42 103 53 80 25 -7
-8 -15 -46 -17 -83 -4 -59 -2 -71 19 -102 13 -19 44 -46 70 -60 87 -47 109
-77 128 -178 7 -34 17 -62 22 -62 27 0 56 34 62 73 10 58 59 131 103 152 32
16 39 16 68 2 23 -11 34 -26 44 -57 7 -23 15 -49 19 -59 5 -14 4 -14 -13 -1
-17 14 -18 13 -11 -13 4 -19 0 -43 -14 -74 -11 -25 -20 -53 -20 -63 0 -22 38
-56 71 -64 26 -6 26 -4 33 55 3 34 10 78 16 98 40 145 70 307 70 378 0 205
-73 302 -227 303 -51 0 -63 3 -63 16 0 29 -39 72 -86 95 -57 27 -202 35 -279
16z"/>
<path d="M6478 5930 c-29 -29 -29 -31 -14 -55 9 -14 16 -45 16 -75 0 -54 14
-65 43 -32 18 20 24 97 8 106 -5 4 -7 -3 -4 -14 3 -11 0 -20 -6 -20 -6 0 -11
6 -11 14 0 8 -9 18 -20 21 -29 9 -25 26 12 57 18 15 27 28 20 28 -8 0 -27 -14
-44 -30z m52 -110 c0 -5 -5 -10 -11 -10 -5 0 -7 5 -4 10 3 6 8 10 11 10 2 0 4
-4 4 -10z"/>
<path d="M6565 5950 c3 -5 14 -10 23 -10 15 0 15 2 2 10 -20 13 -33 13 -25 0z"/>
<path d="M5950 5920 c-14 -4 -40 -8 -58 -9 -40 -1 -51 -24 -27 -52 15 -15 26
-18 54 -13 20 3 41 13 48 21 9 12 31 14 102 12 100 -4 112 5 40 33 -46 18
-117 21 -159 8z"/>
<path d="M5796 5885 c4 -8 11 -15 16 -15 6 0 5 6 -2 15 -7 8 -14 15 -16 15 -2
0 -1 -7 2 -15z"/>
<path d="M5950 5830 c0 -3 6 -12 13 -19 10 -11 10 -14 0 -18 -22 -8 -14 -19
26 -38 43 -19 61 -14 61 15 0 24 18 36 33 21 13 -13 77 -15 77 -2 0 11 -25 21
-51 21 -13 0 -18 4 -13 11 5 9 -1 10 -20 5 -15 -4 -26 -2 -26 4 0 6 -21 9 -50
8 -27 -1 -50 -5 -50 -8z"/>
<path d="M4059 5790 c-52 -9 -89 -26 -89 -40 0 -12 27 -13 34 -1 10 15 128 22
181 11 75 -17 99 -17 103 0 6 32 -120 48 -229 30z"/>
<path d="M5124 5782 c-63 -35 -79 -51 -66 -64 9 -9 17 -9 26 -3 65 48 71 50
146 51 95 1 95 1 80 19 -18 22 -145 20 -186 -3z"/>
<path d="M4757 5783 c-7 -7 42 -28 98 -42 17 -4 44 -15 62 -24 18 -10 34 -17
38 -17 11 0 4 41 -7 44 -7 2 -43 13 -81 25 -70 22 -99 26 -110 14z"/>
<path d="M4371 5754 c-26 -27 -22 -31 10 -11 17 10 23 9 26 -1 3 -6 9 -10 14
-6 14 8 11 22 -9 33 -13 7 -23 4 -41 -15z"/>
<path d="M5384 5726 c-15 -12 -16 -17 -7 -27 10 -10 15 -9 28 1 16 13 21 40 7
40 -5 0 -17 -6 -28 -14z"/>
<path d="M4060 5709 c0 -6 -9 -9 -20 -6 -23 6 -26 -5 -6 -22 10 -8 30 -10 58
-6 l44 7 -4 -36 c-5 -46 19 -49 44 -7 16 27 19 28 32 13 13 -16 13 -16 8 1 -3
10 -6 27 -6 37 0 22 -27 28 -87 19 -24 -3 -43 -2 -43 3 0 4 -4 8 -10 8 -5 0
-10 -5 -10 -11z"/>
<path d="M5133 5701 c-38 -24 -42 -50 -10 -71 54 -36 77 -29 77 25 0 19 -6 36
-12 39 -7 3 11 3 40 0 34 -4 52 -2 52 5 0 6 -10 11 -22 11 -13 0 -39 3 -58 6
-25 3 -44 -1 -67 -15z"/>
<path d="M4765 5701 c6 -5 23 -11 40 -13 25 -2 30 -8 32 -32 1 -16 10 -38 20
-48 16 -15 22 -16 36 -6 27 21 26 58 -3 78 -27 19 -143 39 -125 21z"/>
<path d="M4337 5682 c-19 -21 -23 -37 -6 -27 6 4 13 -2 16 -14 5 -19 7 -18 30
10 28 33 28 34 -3 43 -14 4 -26 0 -37 -12z"/>
<path d="M6545 5690 c-3 -5 -17 -10 -31 -10 -14 0 -22 -4 -19 -10 14 -22 75
-4 75 22 0 11 -18 10 -25 -2z"/>
<path d="M6737 5593 c-3 -2 2 -28 10 -56 21 -70 12 -244 -17 -347 -11 -41 -25
-97 -31 -125 -15 -73 -46 -152 -74 -189 -24 -32 -25 -36 -26 -232 -1 -217 13
-445 37 -594 9 -52 20 -122 24 -155 5 -33 20 -136 34 -230 14 -93 26 -189 26
-212 0 -23 3 -44 8 -46 8 -5 242 41 338 67 73 19 86 19 138 5 45 -13 128 -86
161 -144 30 -51 58 -149 50 -174 -7 -23 -39 -37 -124 -54 l-64 -12 64 -40 c84
-53 103 -57 169 -40 30 8 96 19 145 25 327 40 377 60 425 171 60 140 36 464
-54 728 -31 92 -32 100 -20 142 8 24 14 54 14 65 0 12 -27 75 -60 141 -48 95
-64 140 -79 219 -29 148 -66 297 -101 408 -48 149 -100 196 -367 332 -125 63
-366 164 -393 164 -8 0 -50 38 -92 84 -69 74 -126 115 -141 99z"/>
<path d="M5905 5564 c-25 -12 -26 -13 -5 -8 14 3 41 9 60 14 35 8 35 8 5 8
-16 1 -43 -5 -60 -14z"/>
<path d="M5228 5413 c7 -3 16 -2 19 1 4 3 -2 6 -13 5 -11 0 -14 -3 -6 -6z"/>
<path d="M4243 5370 c1 -11 2 -20 3 -20 1 0 9 3 18 6 23 9 20 34 -3 34 -14 0
-19 -6 -18 -20z"/>
<path d="M4155 5270 c3 -5 11 -10 16 -10 6 0 7 5 4 10 -3 6 -11 10 -16 10 -6
0 -7 -4 -4 -10z"/>
<path d="M3917 5147 c-26 -32 -18 -57 31 -94 68 -52 162 -39 162 23 0 19 -5
24 -25 24 -23 0 -73 24 -120 56 -25 18 -27 18 -48 -9z"/>
<path d="M4069 4914 c13 -22 71 -91 71 -84 0 3 -4 20 -9 38 -9 31 -9 32 12 21
20 -10 21 -10 6 5 -8 9 -24 18 -35 20 -10 3 -27 8 -38 12 -16 6 -17 4 -7 -12z"/>
<path d="M2710 4915 c0 -3 19 -34 42 -68 50 -74 92 -158 108 -217 6 -23 13
-40 16 -37 7 7 -35 165 -53 201 -22 43 -71 104 -94 117 -10 5 -19 7 -19 4z"/>
<path d="M3501 4904 c0 -11 3 -14 6 -6 3 7 2 16 -1 19 -3 4 -6 -2 -5 -13z"/>
<path d="M3886 4805 c-9 -26 -7 -32 5 -12 6 10 9 21 6 23 -2 3 -7 -2 -11 -11z"/>
<path d="M3942 4738 c-18 -18 -14 -35 14 -57 37 -29 53 -26 24 3 -12 14 -20
32 -17 40 8 20 -6 29 -21 14z"/>
<path d="M4100 4731 c0 -26 64 -301 71 -301 3 0 0 37 -7 83 -8 45 -11 100 -8
122 4 34 1 45 -25 75 -17 20 -30 29 -31 21z"/>
<path d="M4305 4637 c-9 -92 -45 -268 -60 -297 -7 -14 -16 -42 -20 -63 -7 -37
-20 -48 -28 -24 -3 10 -2 -55 2 -75 0 -5 25 -7 54 -7 28 1 44 3 34 6 -17 4
-17 6 -2 23 39 43 68 298 49 438 -9 73 -21 73 -29 -1z"/>
<path d="M2898 4497 c-5 -10 -8 -33 -8 -50 0 -87 -48 -262 -140 -512 l-33 -89
-12 39 -12 40 -7 -83 c-6 -64 -12 -85 -26 -92 -13 -7 -20 -6 -24 5 -3 8 -16
15 -28 15 -13 0 -66 11 -118 25 -59 15 -123 25 -169 25 -41 0 -72 -2 -70 -4 3
-3 40 -12 84 -21 44 -9 105 -29 135 -43 l55 -27 -35 -3 c-59 -5 -213 -39 -251
-54 -46 -20 -122 -68 -116 -74 2 -3 40 11 84 30 94 42 179 57 234 43 21 -5 39
-12 39 -16 0 -4 -21 -13 -47 -20 -45 -11 -120 -58 -110 -67 3 -3 51 9 107 26
97 28 111 30 234 26 131 -4 237 -26 307 -62 34 -17 38 -34 8 -34 -26 0 -59
-18 -59 -32 0 -6 -7 -20 -17 -30 -15 -17 -13 -18 65 -18 47 0 82 4 82 10 0 6
9 6 26 0 14 -6 71 -10 127 -10 l102 0 24 88 c49 178 59 223 65 284 5 61 4 59
-39 -71 -24 -74 -55 -149 -67 -167 -22 -32 -52 -45 -60 -26 -1 5 -43 23 -92
41 -70 25 -91 29 -98 19 -5 -9 -8 -9 -8 -1 0 12 -55 35 -64 26 -3 -4 -6 -2 -6
3 0 6 -16 16 -35 23 -33 12 -60 31 -110 77 -43 40 -41 195 5 284 12 24 28 59
35 79 8 20 27 68 43 107 35 84 65 210 60 250 l-4 29 -19 -40 -20 -40 -5 55
c-3 38 -7 49 -12 37z m247 -1027 c3 -5 1 -10 -4 -10 -6 0 -11 5 -11 10 0 6 2
10 4 10 3 0 8 -4 11 -10z"/>
<path d="M4182 4310 c0 -19 2 -27 5 -17 2 9 2 25 0 35 -3 9 -5 1 -5 -18z"/>
<path d="M2521 3583 c-22 -17 -35 -22 -40 -15 -4 8 -21 3 -50 -14 -50 -30 -47
-46 4 -19 19 11 37 16 41 12 8 -8 -14 -37 -29 -37 -43 0 -137 -144 -186 -285
-14 -39 -23 -51 -41 -53 -21 -3 -22 -2 -11 12 11 13 11 16 -2 16 -8 0 -24 14
-35 32 -11 17 -29 32 -41 33 -11 1 -18 -2 -15 -7 4 -5 13 -7 23 -3 13 5 14 4
3 -7 -10 -10 -17 -10 -31 -1 -18 11 -31 8 -31 -8 0 -5 7 -5 17 -2 11 5 14 3 8
-6 -5 -10 -2 -11 13 -7 21 7 40 -18 22 -29 -6 -4 -10 -1 -10 6 0 7 -3 10 -6 6
-8 -8 -56 17 -74 38 -12 15 -12 19 5 31 18 13 18 14 -4 14 -12 0 -20 -4 -17
-9 4 -5 1 -11 -5 -13 -15 -5 38 -56 82 -79 37 -18 138 -39 194 -39 l30 0 0 74
c0 41 -3 77 -7 81 -18 18 40 122 97 175 l27 25 -30 -50 c-32 -52 -36 -78 -33
-215 1 -45 4 -60 11 -50 5 8 9 52 8 98 -1 79 1 86 43 169 25 49 59 98 78 114
44 36 37 47 -8 12z m-336 -402 c-2 -2 -11 -1 -19 2 -12 5 -14 15 -6 47 0 3 7
-6 15 -20 7 -14 12 -27 10 -29z"/>
<path d="M5620 3560 c0 -5 5 -10 10 -10 6 0 10 5 10 10 0 6 -4 10 -10 10 -5 0
-10 -4 -10 -10z"/>
<path d="M6320 3309 c12 -23 23 -39 25 -37 9 9 -19 78 -32 78 -10 0 -8 -10 7
-41z"/>
<path d="M2206 3244 c-10 -7 -15 -17 -11 -23 9 -15 19 -14 46 7 22 18 22 19 2
24 -11 3 -28 -1 -37 -8z"/>
<path d="M2806 3163 c-3 -4 -6 -18 -6 -33 0 -14 -5 -31 -11 -37 -7 -7 -1 -12
21 -16 20 -5 56 2 105 18 40 14 82 25 92 25 44 1 -14 19 -81 25 -39 4 -81 11
-92 16 -12 4 -25 5 -28 2z"/>
<path d="M2421 3100 c27 -16 141 -40 184 -39 36 1 35 2 -16 10 -30 4 -75 15
-100 23 -51 18 -95 22 -68 6z"/>
<path d="M5875 3089 c-53 -16 -78 -18 -102 -11 -17 5 -52 7 -76 5 l-44 -5 5
-47 c2 -25 6 -48 8 -50 1 -1 47 4 101 13 54 8 152 23 218 31 65 9 126 20 135
25 13 8 13 9 -3 10 -9 0 -50 11 -89 25 -39 14 -74 25 -77 24 -3 0 -37 -9 -76
-20z"/>
<path d="M3193 3043 c15 -2 37 -2 50 0 12 2 0 4 -28 4 -27 0 -38 -2 -22 -4z"/>
<path d="M3368 3033 c46 -2 118 -2 160 0 42 1 5 3 -83 3 -88 0 -123 -2 -77 -3z"/>
<path d="M6120 3021 c-41 -10 -161 -28 -267 -41 -106 -13 -190 -26 -188 -28
17 -18 545 59 545 80 0 10 2 10 -90 -11z"/>
<path d="M3070 3015 c0 -23 26 -35 75 -33 l50 2 -49 3 c-31 3 -54 11 -63 21
-7 9 -13 12 -13 7z"/>
<path d="M3657 3001 c-4 -17 -3 -21 5 -13 5 5 8 16 6 23 -3 8 -7 3 -11 -10z"/>
<path d="M3285 3001 c161 -16 310 -23 303 -16 -9 9 -32 11 -243 18 -101 4
-117 3 -60 -2z"/>
</g>
</svg>
